<svg fill="white" viewBox="0 0 32 32">
<path d="M16 .4C7.3.4.4 7.3.4 16c0 2.8.7 5.5 2.1 7.9L0 32l8.4-2.2c2.3 1.3 4.9 2 7.6 2 8.7 0 15.6-6.9 15.6-15.6S24.7.4 16 .4zm0 28.4c-2.5 0-5-.7-7.1-2l-.5-.3-5 1.3 1.3-4.8-.3-.5c-1.3-2.1-2-4.6-2-7.1C2.4 8.2 8.2 2.4 16 2.4S29.6 8.2 29.6 16 23.8 28.8 16 28.8z"/>
<path d="M23.2 19.4c-.4-.2-2.4-1.2-2.8-1.3-.4-.2-.7-.2-1 .2-.3.4-1.1 1.3-1.4 1.6-.3.3-.5.3-.9.1-.4-.2-1.6-.6-3.1-2-1.1-1-2-2.3-2.2-2.7-.2-.4 0-.6.2-.8.2-.2.4-.5.6-.7.2-.2.3-.4.4-.6.1-.2.1-.4 0-.6-.1-.2-1-2.4-1.4-3.3-.4-.9-.7-.8-1-.8h-.9c-.3 0-.8.1-1.2.6-.4.4-1.6 1.6-1.6 3.8s1.6 4.4 1.8 4.7c.2.3 3.1 5 7.6 7 1.1.5 2 .8 2.7 1 .9.3 1.7.3 2.3.2.7-.1 2.4-.9 2.7-1.8.3-.9.3-1.6.2-1.8-.1-.2-.3-.3-.7-.5z"/>
</svg>
